<?xml version="1.0" encoding="utf-8"?>
<!-- Generator: Adobe Illustrator 24.0.1, SVG Export Plug-In . SVG Version: 6.00 Build 0)  -->
<svg version="1.1" id="Layer_1" xmlns="http://www.w3.org/2000/svg" xmlns:xlink="http://www.w3.org/1999/xlink" x="0px" y="0px"
	 viewBox="0 0 16 16" style="enable-background:new 0 0 16 16;" xml:space="preserve">
<title>all_icn</title>
<g>
	<path class="st0" d="M3.5,0h-3C0.2,0,0,0.2,0,0.5v3C0,3.8,0.2,4,0.5,4h3C3.8,4,4,3.8,4,3.5v-3C4,0.2,3.8,0,3.5,0z M3,3H1V1h2V3z"/>
	<path class="st0" d="M3.5,6h-3C0.2,6,0,6.2,0,6.5v3C0,9.8,0.2,10,0.5,10h3C3.8,10,4,9.8,4,9.5v-3C4,6.2,3.8,6,3.5,6z M3,9H1V7h2V9z
		"/>
	<path class="st0" d="M3.5,12h-3C0.2,12,0,12.2,0,12.5v3C0,15.8,0.2,16,0.5,16h3C3.8,16,4,15.8,4,15.5v-3C4,12.2,3.8,12,3.5,12z
		 M3,15H1v-2h2V15z"/>
	<path class="st0" d="M6.5,3h9C15.8,3,16,2.8,16,2.5S15.8,2,15.5,2h-9C6.2,2,6,2.2,6,2.5S6.2,3,6.5,3z"/>
	<path class="st0" d="M15.5,8h-9C6.2,8,6,8.2,6,8.5S6.2,9,6.5,9h9C15.8,9,16,8.8,16,8.5S15.8,8,15.5,8z"/>
	<path class="st0" d="M15.5,14h-9C6.2,14,6,14.2,6,14.5S6.2,15,6.5,15h9c0.3,0,0.5-0.2,0.5-0.5S15.8,14,15.5,14z"/>
</g>
</svg>
