<?xml version="1.0" encoding="utf-8"?>
<!-- Generator: Adobe Illustrator 24.0.1, SVG Export Plug-In . SVG Version: 6.00 Build 0)  -->
<svg version="1.1" id="Layer_1" xmlns="http://www.w3.org/2000/svg" xmlns:xlink="http://www.w3.org/1999/xlink" x="0px" y="0px"
	 viewBox="0 0 20 20" style="enable-background:new 0 0 20 20;" xml:space="preserve">
<title>climate_risk</title>
<g>
	<path class="st0" d="M17.8,4C17.8,4,17.8,4,17.8,4c0-0.1-0.1-0.1-0.1-0.2c-1.8-2.3-4.6-3.7-7.7-3.7c-0.2,0-0.5,0-0.7,0
		c0,0-0.1,0-0.1,0C7.4,0.3,5.8,0.9,4.4,1.9c0,0-0.1,0-0.1,0.1C1.8,3.7,0.1,6.7,0.1,10c0,3,1.3,5.6,3.4,7.4c0,0,0,0,0,0
		c1.7,1.5,4,2.4,6.5,2.4c5.4,0,9.9-4.4,9.9-9.9C19.9,7.8,19.1,5.7,17.8,4z M16.6,4c-1.3,0.5-2.7,1-4,1.2c-0.3,0-0.4-0.1-0.8-0.8
		c-0.1-0.2-0.3-0.4-0.4-0.7c-0.2-0.3-0.4-0.6-0.7-0.9c-0.4-0.5-0.9-1.1-0.9-1.4c0-0.1,0-0.2,0-0.3c0.1,0,0.2,0,0.3,0
		C12.6,1.1,14.9,2.3,16.6,4z M1.1,10c0-2.9,1.4-5.4,3.5-7C5,3.3,5.4,3.8,5.7,4.3c0.4,0.7,1,2.2,0.5,2.9c-0.3,0.4-1,0.7-1.6,1.1
		C3.6,8.6,2.7,9.1,2.7,10c0,0.7,0.6,1.4,1.1,2c0.2,0.3,0.5,0.5,0.7,0.8c0.6,0.9,0.6,2,0,2.9c-0.2,0.3-0.4,0.5-0.6,0.7
		C2.2,14.8,1.1,12.5,1.1,10z M10,18.9c-2,0-3.9-0.7-5.4-1.8c0.3-0.2,0.5-0.5,0.7-0.8c0.8-1.2,0.8-2.8,0-4c-0.2-0.3-0.5-0.6-0.7-0.9
		c-0.4-0.5-0.9-1-0.9-1.4c0-0.3,0.8-0.6,1.3-0.9c0.7-0.3,1.5-0.7,2-1.3c1-1.3-0.2-3.5-0.4-4c-0.3-0.5-0.7-1-1.1-1.4
		c1-0.6,2.1-1,3.2-1.2c0,0.1,0,0.2,0,0.2c0,0.7,0.6,1.4,1.2,2.1c0.2,0.3,0.5,0.5,0.6,0.8c0.2,0.2,0.3,0.5,0.4,0.7
		c0.4,0.7,0.7,1.3,1.7,1.3c0.1,0,0.1,0,0.2,0c1.6-0.3,3.1-0.8,4.6-1.4c1,1.5,1.7,3.2,1.7,5.2C18.9,14.9,14.9,18.9,10,18.9z"/>
	<path class="st0" d="M16.5,10.7c-0.2-1.8-1.7-3.1-3.5-3c-1.1,0-2.2,0.4-2.8,1.2c-0.5,0.6-0.7,1.2-0.6,1.9c0.1,1.3,0.1,2.2,0,2.9
		c-0.1,1.2-0.1,2.1,1.1,2.7c0.2,0.1,0.5,0.1,0.7,0.1c0.6,0,1.3-0.3,2-0.8C15,14.8,16.5,12.7,16.5,10.7
		C16.5,10.8,16.5,10.7,16.5,10.7z M12.9,15c-0.7,0.5-1.4,0.7-1.8,0.5c-0.6-0.2-0.6-0.4-0.5-1.7c0.1-0.7,0.1-1.8,0-3.1
		c-0.1-0.5,0.2-0.9,0.4-1.1C11.4,9,12.2,8.7,13,8.7c0.1,0,0.1,0,0.1,0c1.2,0,2.2,0.9,2.3,2.1C15.5,12.3,14.2,14.1,12.9,15z"/>
</g>
</svg>
