<?xml version="1.0" encoding="utf-8"?>
<!-- Generator: Adobe Illustrator 24.0.1, SVG Export Plug-In . SVG Version: 6.00 Build 0)  -->
<svg version="1.1" id="Layer_1" xmlns="http://www.w3.org/2000/svg" xmlns:xlink="http://www.w3.org/1999/xlink" x="0px" y="0px"
	 viewBox="0 0 20 20" style="enable-background:new 0 0 20 20;" xml:space="preserve">
<title>human_impact</title>
<g>
	<path class="st0" d="M1.1,6.9V1.1h5.8c0.2,0,0.3,0,0.5,0C7.7,1.2,8,1,8,0.7c0-0.3-0.2-0.5-0.4-0.6c-0.2,0-0.4,0-0.6,0H0.6
		c-0.3,0-0.5,0.2-0.5,0.5v6.2c0,0.3,0.2,0.5,0.5,0.5S1.1,7.2,1.1,6.9z"/>
	<path class="st0" d="M19.4,0.1h-6.7c-1,0-2,0.4-2.8,1L6,4.5C5.6,5,5.4,5.6,5.5,6.2c0.1,0.6,0.5,1.1,1,1.4c0.3,0.1,0.6,0.2,0.8,0.2
		c0.4,0,0.8-0.1,1.1-0.4l4-3l5.5,5.5c0.4,0.4,0.4,1.1,0,1.5c-0.4,0.4-1.1,0.4-1.5,0l-1.7-1.7c-0.2-0.2-0.5-0.2-0.7,0s-0.2,0.5,0,0.7
		l1.9,1.9c0.4,0.4,0.4,1.1,0,1.5c-0.4,0.4-1.1,0.4-1.5,0l-1.9-1.9c-0.2-0.2-0.5-0.2-0.7,0s-0.2,0.5,0,0.7l1.4,1.4
		c0.4,0.4,0.4,1.1,0,1.5c-0.2,0.2-0.2,0.5,0,0.7c0.1,0.1,0.2,0.1,0.4,0.1s0.3,0,0.4-0.1c0.3-0.3,0.5-0.8,0.6-1.2
		C14.7,15,15,15,15.2,15c0.5,0,1-0.2,1.4-0.6c0.5-0.5,0.7-1.1,0.6-1.8c0.5,0,1-0.2,1.4-0.6c0.8-0.8,0.8-2.1,0-2.9l-5.8-5.8
		c0,0,0,0-0.1,0c0,0-0.1,0-0.1-0.1c0,0-0.1,0-0.1,0c0,0-0.1,0-0.1,0c0,0-0.1,0-0.1,0c0,0-0.1,0-0.1,0c0,0-0.1,0-0.1,0c0,0,0,0-0.1,0
		L7.9,6.6C7.6,6.8,7.3,6.8,7,6.7C6.7,6.5,6.5,6.3,6.5,6s0-0.6,0.2-0.8l3.8-3.3c0.6-0.5,1.4-0.8,2.1-0.8h6.2v5.8
		c0,0.3,0.2,0.5,0.5,0.5s0.5-0.2,0.5-0.5V0.6C19.9,0.3,19.7,0.1,19.4,0.1z"/>
	<path class="st0" d="M10.9,15c-0.3-0.3-0.6-0.4-1-0.4c0,0,0-0.1,0-0.1c0-0.5-0.2-0.9-0.5-1.2L9,12.8c-0.3-0.3-0.7-0.4-1.1-0.5
		c0-0.1,0-0.1,0-0.2c0-0.5-0.2-0.9-0.5-1.2l-0.4-0.4C6.6,10.1,6.1,9.9,5.6,10c0-0.4-0.2-0.9-0.5-1.2L4.7,8.3C4,7.7,2.9,7.7,2.2,8.3
		L1.5,9.1c-0.7,0.7-0.7,1.8,0,2.5L1.9,12c0.3,0.3,0.7,0.5,1.2,0.5c0,0,0,0.1,0,0.1c0,0.5,0.2,0.9,0.5,1.2L4,14.3
		c0.3,0.3,0.8,0.5,1.2,0.5c0,0,0,0,0,0c0,0,0,0,0,0c0,0.5,0.2,0.9,0.5,1.2l0.4,0.4c0.3,0.3,0.8,0.5,1.2,0.5c0,0,0.1,0,0.1,0
		c0,0.4,0.2,0.7,0.4,1l0.4,0.4c0.3,0.3,0.7,0.5,1.1,0.5c0.4,0,0.8-0.2,1.1-0.5l0.7-0.7c0.3-0.3,0.5-0.7,0.5-1.1
		c0-0.4-0.2-0.8-0.5-1.1L10.9,15z M2.2,10.8c-0.3-0.3-0.3-0.8,0-1L2.9,9c0.1-0.1,0.3-0.2,0.5-0.2C3.6,8.8,3.8,8.9,4,9l0.4,0.4
		c0.3,0.3,0.3,0.8,0,1l-0.8,0.8c-0.3,0.3-0.8,0.3-1,0L2.2,10.8z M4.7,13.5l-0.4-0.4c-0.1-0.1-0.2-0.3-0.2-0.5c0-0.2,0.1-0.4,0.2-0.5
		l0.9-0.9c0.1-0.1,0.3-0.2,0.5-0.2s0.4,0.1,0.5,0.2l0.4,0.4c0.1,0.1,0.2,0.3,0.2,0.5c0,0.2-0.1,0.4-0.2,0.5l-0.2,0.2c0,0,0,0,0,0
		l-0.8,0.8c0,0,0,0,0,0C5.5,13.8,5,13.8,4.7,13.5z M6.9,15.7l-0.4-0.4c-0.1-0.1-0.2-0.3-0.2-0.5c0-0.2,0.1-0.4,0.2-0.5c0,0,0,0,0,0
		l0.8-0.8c0.3-0.3,0.8-0.3,1,0l0.4,0.4c0.1,0.1,0.2,0.3,0.2,0.5c0,0.2-0.1,0.4-0.2,0.5l-0.8,0.8C7.7,16,7.2,16,6.9,15.7z M10.6,16.9
		l-0.7,0.7c-0.2,0.2-0.6,0.2-0.8,0l-0.4-0.4c-0.2-0.2-0.2-0.6,0-0.8l0.7-0.7c0.1-0.1,0.3-0.2,0.4-0.2c0.1,0,0.3,0.1,0.4,0.2l0.4,0.4
		c0.1,0.1,0.2,0.2,0.2,0.4C10.7,16.6,10.7,16.8,10.6,16.9z"/>
</g>
</svg>
