<svg width="24" height="24" viewBox="0 0 24 24" fill="none" xmlns="http://www.w3.org/2000/svg">
<path d="M14.5703 16.8828L14.3984 17.5859C13.8828 17.7891 13.4714 17.9427 13.1641 18.0469C12.8568 18.1562 12.5 18.2109 12.0938 18.2109C11.4688 18.2109 10.9818 18.0599 10.6328 17.7578C10.2891 17.4505 10.1172 17.0625 10.1172 16.5938C10.1172 16.4115 10.1302 16.2266 10.1562 16.0391C10.1823 15.8464 10.224 15.6302 10.2812 15.3906L10.9219 13.1094C10.9792 12.8906 11.026 12.6849 11.0625 12.4922C11.1042 12.2943 11.125 12.1146 11.125 11.9531C11.125 11.6615 11.0651 11.4583 10.9453 11.3438C10.8255 11.2292 10.5964 11.1719 10.2578 11.1719C10.0911 11.1719 9.91927 11.1979 9.74219 11.25C9.57031 11.3021 9.42188 11.3516 9.29688 11.3984L9.46875 10.6953C9.89062 10.5234 10.2943 10.3776 10.6797 10.2578C11.0651 10.1328 11.4297 10.0703 11.7734 10.0703C12.3932 10.0703 12.8698 10.2214 13.2031 10.5234C13.5417 10.8203 13.7109 11.2083 13.7109 11.6875C13.7109 11.7865 13.6979 11.9609 13.6719 12.2109C13.651 12.4609 13.6094 12.6901 13.5469 12.8984L12.9062 15.1719C12.8542 15.3542 12.8073 15.5625 12.7656 15.7969C12.724 16.0312 12.7031 16.2083 12.7031 16.3281C12.7031 16.6302 12.7708 16.8359 12.9062 16.9453C13.0417 17.0547 13.276 17.1094 13.6094 17.1094C13.7656 17.1094 13.9427 17.0833 14.1406 17.0312C14.3385 16.974 14.4818 16.9245 14.5703 16.8828ZM14.7344 7.34375C14.7344 7.73958 14.5833 8.07812 14.2812 8.35938C13.9844 8.63542 13.625 8.77344 13.2031 8.77344C12.7812 8.77344 12.4193 8.63542 12.1172 8.35938C11.8151 8.07812 11.6641 7.73958 11.6641 7.34375C11.6641 6.94792 11.8151 6.60938 12.1172 6.32812C12.4193 6.04688 12.7812 5.90625 13.2031 5.90625C13.625 5.90625 13.9844 6.04688 14.2812 6.32812C14.5833 6.60938 14.7344 6.94792 14.7344 7.34375Z" fill="#4B5362"/>
<circle cx="12" cy="12" r="11.5" stroke="#4B5362"/>
</svg>
