<?xml version="1.0" encoding="utf-8"?>
<!-- Generator: Adobe Illustrator 24.0.1, SVG Export Plug-In . SVG Version: 6.00 Build 0)  -->
<svg version="1.1" id="Layer_1" xmlns="http://www.w3.org/2000/svg" xmlns:xlink="http://www.w3.org/1999/xlink" x="0px" y="0px"
	 viewBox="0 0 31 25" style="enable-background:new 0 0 31 25;" xml:space="preserve">
<style type="text/css">
	.st0{fill:#444444;}
</style>
<title>scroll-vertical-outline-32</title>
<g>
	<polygon class="st0" points="0.8,5.5 1.5,6.2 4,3.7 4,10.5 5,10.5 5,3.7 7.5,6.2 8.2,5.5 4.5,1.8 	"/>
	<polygon class="st0" points="5,21.3 5,14.5 4,14.5 4,21.3 1.5,18.8 0.8,19.5 4.5,23.2 8.2,19.5 7.5,18.8 	"/>
	<path class="st0" d="M27.7,10.5L20,9.1V2.5C20,1.1,18.9,0,17.5,0S15,1.1,15,2.5V12h-1.5c-1.4,0-2.5,1.1-2.5,2.5v2.9
		c0,1.5,0.5,2.9,1.4,4.1l2.8,3.5h13.7l1.6-10.5C30.8,12.6,29.6,10.8,27.7,10.5z M29.6,14.3L28.1,24H15.7l-2.5-3.2
		c-0.8-1-1.2-2.2-1.2-3.4v-2.9c0-0.8,0.7-1.5,1.5-1.5H15v3h1v-3v-1V2.5C16,1.7,16.7,1,17.5,1S19,1.7,19,2.5v7.4l8.5,1.6
		C28.9,11.7,29.8,13,29.6,14.3z"/>
</g>
</svg>
