<svg width="21px" height="21px" viewBox="0 0 21 21" version="1.1" xmlns="http://www.w3.org/2000/svg">
    <title>search</title>
    <g id="UI-Kit" stroke="none" stroke-width="1" fill="none" fill-rule="evenodd">
        <g id="USARESILIENCE_Home" transform="translate(-105.000000, -1748.000000)" fill="#4B5362">
            <path d="M124.591,1769 L119.556,1764.0909 C118.022,1765.32897 116.08,1766.07402 113.966,1766.07402 C109.022,1766.07402 105,1762.02042 105,1757.03801 C105,1752.0546 109.022,1748 113.966,1748 C118.91,1748 122.932,1752.0546 122.932,1757.03801 C122.932,1759.16773 122.193,1761.12475 120.965,1762.67108 L126,1767.58019 L124.591,1769 Z M106.992,1757.03801 C106.992,1760.91288 110.12,1764.06579 113.966,1764.06579 C117.811,1764.06579 120.94,1760.91288 120.94,1757.03801 C120.94,1753.16214 117.811,1750.00822 113.966,1750.00822 C110.12,1750.00822 106.992,1753.16214 106.992,1757.03801 Z" id="search"></path>
        </g>
    </g>
</svg>