<?xml version="1.0" encoding="utf-8"?>
<!-- Generator: Adobe Illustrator 24.0.1, SVG Export Plug-In . SVG Version: 6.00 Build 0)  -->
<svg version="1.1" id="Layer_1" xmlns="http://www.w3.org/2000/svg" xmlns:xlink="http://www.w3.org/1999/xlink" x="0px" y="0px"
	 viewBox="0 0 47 46" style="enable-background:new 0 0 47 46;" xml:space="preserve">
<style type="text/css">
	.st0{fill:#00AFD7;}
</style>
<title>search_picto</title>
<g>
	<path class="st0" d="M46.4,44l-5.8-5.8C41.5,37,42,35.6,42,34c0-3.9-3.1-7-7-7s-7,3.1-7,7s3.1,7,7,7c1.6,0,3-0.5,4.2-1.4l5.8,5.8
		L46.4,44z M30,34c0-2.8,2.2-5,5-5s5,2.2,5,5s-2.2,5-5,5S30,36.8,30,34z"/>
	<path class="st0" d="M18,3.4L29,7l15-3.8V28h2V0.7L29,5L18,1.3V1h-0.8L17,1l-0.2,0H16v0.2l-16,4v38.1L17,39l8.7,2.9l0.6-1.9
		L18,37.3V3.4z M2,6.8l14-3.5v33.9L2,40.7V6.8z"/>
</g>
</svg>
