<?xml version="1.0" encoding="UTF-8"?>
<svg width="105px" height="69px" viewBox="0 0 105 69" version="1.1" xmlns="http://www.w3.org/2000/svg" xmlns:xlink="http://www.w3.org/1999/xlink">
    <title>FD8F138E-BA71-4895-9353-D646862AD799</title>
    <g id="latest" stroke="none" stroke-width="1" fill="none" fill-rule="evenodd">
        <g id="USARESILIENCE_00_nostories" transform="translate(-597.000000, -782.000000)">
            <g id="Group-14" transform="translate(597.000000, 782.000000)">
                <g id="Group-17">
                    <polygon id="Fill-1" fill="#CED9EA" points="59.58333 14.5117131 59.58873 63.84346 83.0820312 53.8135564 83.0820312 4.46106"></polygon>
                    <path d="M31.9761,6e-05 L2.62148781,10.7766648 C1.04672995,11.3547867 2.31588975e-15,12.8540979 0,14.5316221 L0,63.1925265 C-3.28217218e-15,65.4016655 1.790861,67.1925265 4,67.1925265 C4.45871564,67.1925265 4.91401334,67.1136233 5.34597912,66.9592679 L31.9761,57.44346 L31.9761,57.44346 L31.9761,6e-05 Z" id="Fill-2" fill="#4B5362"></path>
                    <polygon id="Fill-3" fill="#CED9EA" points="31.97607 3.91317 4.23537 14.39997 4.23537 62.29557 31.97607 52.43487"></polygon>
                    <polygon id="Fill-4" fill="#FFFFFF" points="31.9761 6e-05 31.9761 57.44346 59.5887 67.30446 59.5887 9.86106"></polygon>
                    <polygon id="Fill-5" fill="#4B5362" points="31.97607 14.90662 24.23937 15.96142 18.47757 15.79132 18.41187 17.16892 16.43637 17.05852 17.17287 19.90582 15.14337 24.56962 15.06117 26.29222 14.02767 28.42402 14.68857 34.07842 14.49747 38.07712 17.34747 39.42802 17.29137 40.59982 20.15397 40.45372 23.04027 42.27142 26.67447 41.83192 28.66167 40.51162 31.28337 44.17312 31.97607 43.39852"></polygon>
                    <polygon id="Fill-6" fill="#AAB7CC" points="31.9761 6e-05 31.9761 3.91326 59.5833 14.34246 59.5053 9.86106"></polygon>
                    <polygon id="Fill-7" fill="#AAB7CC" points="31.97607 52.43481 59.50527 62.89551 59.50527 67.30431 31.97607 57.44331"></polygon>
                    <polygon id="Fill-8" fill="#4B5362" points="72.97734 12.43909 71.53734 13.39429 70.70124 16.60369 67.23354 19.13149 66.06714 22.08229 63.57774 23.65789 61.03974 27.90499 59.58864 28.16209 59.58864 46.32469 60.81144 45.92809 64.51974 50.86369 65.76504 50.68579 65.75034 48.03439 63.56034 43.84129 64.13274 40.42819 67.65204 35.22829 67.63614 32.43229 65.85174 30.55279 66.96234 29.48419 68.08314 30.28189 69.43314 25.04359 72.43554 21.36949 71.89614 18.81079 74.63634 15.14659"></polygon>
                    <polygon id="Fill-9" fill="#AAB7CC" points="58.24953 23.5873 55.89693 24.5248 55.94703 28.2949 55.07853 28.912 53.56773 27.2425 53.87463 24.0055 57.27153 22.6159 52.25673 20.9518 50.59563 21.2422 47.61213 20.7814 50.30583 19.1449 43.97343 17.2774 32.46753 15.0916 31.97613 14.9653 31.97613 42.8746 34.60353 43.7407 38.00163 49.0555 40.47123 50.2573 40.43733 47.7217 45.75153 45.6007 52.69383 47.0818 52.67313 45.5068 59.58873 46.5277 59.58873 25.0993"></polygon>
                    <path d="M87,56 L86.721841,56.0003727 C86.3093077,57.0469148 85.4640536,57.895864 84.3629883,58.2949309 L84.3629883,58.2949309 L59.5053,67.30428 L59.5053,62.89548 L82.99921,54.4240992 L82.99921,5.90209919 L59.58321,14.34246 L59.50521,9.86106 L84.3248118,0.959515608 C84.5414426,0.881821028 84.769858,0.842099191 85,0.842099191 C86.1045695,0.842099191 87,1.73752969 87,2.84209919 L87,2.84209919 L87,56 Z" id="Combined-Shape" fill="#4B5362"></path>
                    <g id="Group-16" transform="translate(69.500000, 46.669500)">
                        <path d="M10.86885,2.898 L0.17295,6.7194 L0.17295,7.9935 L10.93395,4.149 L10.93395,2.8818 C10.91235,2.8869 10.89045,2.8905 10.86885,2.898" id="Fill-12" fill="#4B5362"></path>
                        <path d="M10.93389,0.18204 C10.91229,0.18714 10.89039,0.19044 10.86879,0.19794 L3.34719,2.88534 L3.34719,4.15944 L10.93389,1.44894 L10.93389,0.18204 Z" id="Fill-14" fill="#45BDE1"></path>
                    </g>
                </g>
                <g id="Group-20" transform="translate(74.000000, 16.000000)">
                    <circle id="Oval" stroke="#F3F5FB" stroke-width="4" fill="#F0685B" cx="14.5" cy="14.5" r="14.5"></circle>
                    <g id="zoom-glyph-16" transform="translate(7.000000, 7.000000)" fill="#FFFFFF" fill-rule="nonzero">
                        <path d="M11.1125,9.8875 C11.9,8.8375 12.3375,7.6125 12.3375,6.2125 C12.3375,2.8 9.625,0 6.2125,0 C2.8,0 0,2.8 0,6.2125 C0,9.625 2.8,12.425 6.2125,12.425 C7.6125,12.425 8.925,11.9875 9.8875,11.2 L12.5125,13.825 C12.6875,14 12.95,14.0875 13.125,14.0875 C13.3,14.0875 13.5625,14 13.7375,13.825 C14.0875,13.475 14.0875,12.95 13.7375,12.6 L11.1125,9.8875 Z M6.2125,10.5875 C3.7625,10.5875 1.75,8.6625 1.75,6.2125 C1.75,3.7625 3.7625,1.75 6.2125,1.75 C8.6625,1.75 10.675,3.7625 10.675,6.2125 C10.675,8.6625 8.6625,10.5875 6.2125,10.5875 Z" id="Shape"></path>
                    </g>
                </g>
            </g>
        </g>
    </g>
</svg>