<?xml version="1.0" encoding="UTF-8"?>
<svg width="110px" height="69px" viewBox="0 0 110 69" version="1.1" xmlns="http://www.w3.org/2000/svg" xmlns:xlink="http://www.w3.org/1999/xlink">
    <title>laptop_picto01</title>
    <g id="UI-Kit" stroke="none" stroke-width="1" fill="none" fill-rule="evenodd">
        <g id="USARESILIENCE_Home" transform="translate(-669.000000, -2033.000000)">
            <g id="laptop_picto01" transform="translate(669.000000, 2035.000000)">
                <g id="Group-17">
                    <path d="M16.2,7 L89.8,7 C92.6718807,7 95,9.3281193 95,12.2 L95,57 C95,58.1045695 94.1045695,59 93,59 L13,59 C11.8954305,59 11,58.1045695 11,57 L11,12.2 C11,9.3281193 13.3281193,7 16.2,7 Z" id="Rectangle" fill="#4B5362"></path>
                    <path d="M13.8,16 L92.2,16 C92.6418278,16 93,16.3581722 93,16.8 L93,56.2 C93,56.6418278 92.6418278,57 92.2,57 L13.8,57 C13.3581722,57 13,56.6418278 13,56.2 L13,16.8 C13,16.3581722 13.3581722,16 13.8,16 Z" id="Rectangle" fill="#FFFFFF"></path>
                    <g id="Group-4" transform="translate(82.000000, 0.000000)">
                        <circle id="Oval" stroke="#F3F5FB" stroke-width="4" fill="#4595E1" cx="13" cy="13" r="13"></circle>
                        <g id="Group-3" transform="translate(12.000000, 4.000000)" fill="#FFFFFF">
                            <rect id="Rectangle" x="0" y="0" width="2" height="12"></rect>
                            <rect id="Rectangle" x="0" y="14" width="2" height="3"></rect>
                        </g>
                    </g>
                    <path d="M104.4,60.0229492 C105.283656,60.0229492 106,60.7392936 106,61.6229492 L106,63.5114746 C106,65.438134 104.438134,67 102.511475,67 L3.48852539,67 C1.56186602,67 2.35947723e-16,65.438134 0,63.5114746 L0,61.6229492 C1.13828005e-16,60.7392936 0.7163444,60.0229492 1.6,60.0229492 L40.977,60.0227187 L42.4818803,62.4606461 C42.8878102,63.1182525 43.5831838,63.536992 44.3467977,63.5934567 L44.524127,63.6 L61.1543294,63.6 C61.9599001,63.6 62.7117391,63.1958505 63.1561251,62.5239389 L63.1561251,62.5239389 L64.81,60.0227187 L104.4,60.0229492 Z" id="Combined-Shape" fill="#4B5362"></path>
                    <circle id="Oval" fill="#F3F5FB" cx="53" cy="12" r="1"></circle>
                </g>
                <polygon id="Path" fill="#4B5362" fill-rule="nonzero" points="61.9907331 28 61.9907331 28.6263736 60.9652039 28.3131868 61.4176433 29.7225275 60.482602 31.6016484 60.482602 32.3846154 60 33.2302198 60.482602 35.9236264 60.482602 37.7401099 61.9907331 38.7423077 61.9907331 39.2747253 63.4687016 39.5879121 65.0069954 40.8093407 66.877078 41.0912088 67.8724445 40.7467033 69.3202504 42.7824176 69.9235028 42.3126374 70.8585441 42.5318681 72.0047238 44.7241758 72.8492772 45.1 72.8492772 43.9412088 74.6891972 42.5945055 77.0720444 42.7824176 77.0720444 42.0620879 80.540746 42.0307692 82.2298529 44.6928571 82.8029427 44.7868132 82.8029427 43.628022 81.8075761 41.4983516 82.0790398 40.089011 83.7078214 38.3038462 83.7078214 37.0824176 82.8934306 36.0175824 83.4061951 35.7043956 83.9189597 36.2054945 84.5523748 34.1071429 85.9398554 32.917033 85.6985545 31.7269231 86.9653846 30.5054945 86.2113191 29.0961538 85.5477414 29.3153846 85.1556273 30.5994505 83.5570083 31.2258242 83.0140811 32.3532967 81.8679014 32.6978022 80.6915591 34.2010989 79.9676562 34.1071429 79.9978188 32.8230769 79.0929401 31.632967 78.2785493 32.228022 78.2785493 33.9505495 77.9769231 34.2950549 77.4641585 33.6373626 77.584809 32.1340659 78.7611513 31.2571429 77.0418818 30.85 76.4687919 31.1005495 75.4432628 31.1005495 76.3783041 30.160989 74.2065953 29.7538462 70.2552917 29.5659341 64.9768327 28.8456044"></polygon>
                <rect id="Rectangle" fill="#4595E1" x="19" y="26" width="27" height="1"></rect>
                <rect id="Rectangle" fill="#4B5362" x="19" y="31" width="16" height="1"></rect>
            </g>
        </g>
    </g>
</svg>