<?xml version="1.0" encoding="UTF-8"?>
<svg width="174px" height="128px" viewBox="0 0 174 128" version="1.1" xmlns="http://www.w3.org/2000/svg" xmlns:xlink="http://www.w3.org/1999/xlink">
    <title>laptop_picto02</title>
    <defs>
        <filter x="-43.4%" y="-76.7%" width="186.8%" height="253.3%" filterUnits="objectBoundingBox" id="filter-1">
            <feOffset dx="0" dy="8" in="SourceAlpha" result="shadowOffsetOuter1"></feOffset>
            <feGaussianBlur stdDeviation="8" in="shadowOffsetOuter1" result="shadowBlurOuter1"></feGaussianBlur>
            <feColorMatrix values="0 0 0 0 0.270588235   0 0 0 0 0.584313725   0 0 0 0 0.882352941  0 0 0 0.408189467 0" type="matrix" in="shadowBlurOuter1" result="shadowMatrixOuter1"></feColorMatrix>
            <feMerge>
                <feMergeNode in="shadowMatrixOuter1"></feMergeNode>
                <feMergeNode in="SourceGraphic"></feMergeNode>
            </feMerge>
        </filter>
    </defs>
    <g id="UI-Kit" stroke="none" stroke-width="1" fill="none" fill-rule="evenodd">
        <g id="USARESILIENCE_Home" transform="translate(-786.000000, -2006.000000)">
            <g id="laptop_picto02" filter="url(#filter-1)" transform="translate(820.000000, 2040.000000)">
                <g id="Group-17">
                    <path d="M16.2,0 L89.8,0 C92.6718807,-5.27555926e-16 95,2.3281193 95,5.2 L95,50 C95,51.1045695 94.1045695,52 93,52 L13,52 C11.8954305,52 11,51.1045695 11,50 L11,5.2 C11,2.3281193 13.3281193,-3.60622494e-16 16.2,0 Z" id="Rectangle" fill="#FFFFFF"></path>
                    <path d="M13.8,9 L92.2,9 C92.6418278,9 93,9.3581722 93,9.8 L93,49.2 C93,49.6418278 92.6418278,50 92.2,50 L13.8,50 C13.3581722,50 13,49.6418278 13,49.2 L13,9.8 C13,9.3581722 13.3581722,9 13.8,9 Z" id="Rectangle" fill="#4595E1"></path>
                    <path d="M104.4,53.0229492 C105.283656,53.0229492 106,53.7392936 106,54.6229492 L106,56.5114746 C106,58.438134 104.438134,60 102.511475,60 L3.48852539,60 C1.56186602,60 2.35947723e-16,58.438134 0,56.5114746 L0,54.6229492 C1.13828005e-16,53.7392936 0.7163444,53.0229492 1.6,53.0229492 L40.977,53.0227187 L42.4818803,55.4606461 C42.8878102,56.1182525 43.5831838,56.536992 44.3467977,56.5934567 L44.524127,56.6 L61.1543294,56.6 C61.9599001,56.6 62.7117391,56.1958505 63.1561251,55.5239389 L63.1561251,55.5239389 L64.81,53.0227187 L104.4,53.0229492 Z" id="Combined-Shape" fill="#FFFFFF"></path>
                    <circle id="Oval" fill="#4595E1" cx="53" cy="5" r="1"></circle>
                </g>
                <polygon id="Path" fill="#4B5362" fill-rule="nonzero" points="61.9907331 21 61.9907331 21.6263736 60.9652039 21.3131868 61.4176433 22.7225275 60.482602 24.6016484 60.482602 25.3846154 60 26.2302198 60.482602 28.9236264 60.482602 30.7401099 61.9907331 31.7423077 61.9907331 32.2747253 63.4687016 32.5879121 65.0069954 33.8093407 66.877078 34.0912088 67.8724445 33.7467033 69.3202504 35.7824176 69.9235028 35.3126374 70.8585441 35.5318681 72.0047238 37.7241758 72.8492772 38.1 72.8492772 36.9412088 74.6891972 35.5945055 77.0720444 35.7824176 77.0720444 35.0620879 80.540746 35.0307692 82.2298529 37.6928571 82.8029427 37.7868132 82.8029427 36.628022 81.8075761 34.4983516 82.0790398 33.089011 83.7078214 31.3038462 83.7078214 30.0824176 82.8934306 29.0175824 83.4061951 28.7043956 83.9189597 29.2054945 84.5523748 27.1071429 85.9398554 25.917033 85.6985545 24.7269231 86.9653846 23.5054945 86.2113191 22.0961538 85.5477414 22.3153846 85.1556273 23.5994505 83.5570083 24.2258242 83.0140811 25.3532967 81.8679014 25.6978022 80.6915591 27.2010989 79.9676562 27.1071429 79.9978188 25.8230769 79.0929401 24.632967 78.2785493 25.228022 78.2785493 26.9505495 77.9769231 27.2950549 77.4641585 26.6373626 77.584809 25.1340659 78.7611513 24.2571429 77.0418818 23.85 76.4687919 24.1005495 75.4432628 24.1005495 76.3783041 23.160989 74.2065953 22.7538462 70.2552917 22.5659341 64.9768327 21.8456044"></polygon>
                <rect id="Rectangle" fill="#4B5362" x="19" y="19" width="27" height="1"></rect>
                <rect id="Rectangle" fill="#FFFFFF" x="19" y="24" width="16" height="1"></rect>
            </g>
        </g>
    </g>
</svg>