<?xml version="1.0" encoding="utf-8"?>
<!-- Generator: Adobe Illustrator 24.0.1, SVG Export Plug-In . SVG Version: 6.00 Build 0)  -->
<svg version="1.1" id="Layer_1" xmlns="http://www.w3.org/2000/svg" xmlns:xlink="http://www.w3.org/1999/xlink" x="0px" y="0px"
	 viewBox="0 0 21 31" style="enable-background:new 0 0 21 31;" xml:space="preserve">
<style type="text/css">
	.st0{fill:#444444;}
</style>
<title>mouse</title>
<g id="UI-Kit">
	<g id="USARESILIENCE_Home" transform="translate(-107.000000, -2027.000000)">
		<g id="mouse-outline-32" transform="translate(107.000000, 2027.000000)">
			<g id="Rectangle">
				<path class="st0" d="M10.5,31C4.7,31,0,26.3,0,20.5v-10C0,4.7,4.7,0,10.5,0C16.3,0,21,4.7,21,10.5v10C21,26.3,16.3,31,10.5,31z
					 M10.5,1C5.3,1,1,5.3,1,10.5v10c0,5.2,4.3,9.5,9.5,9.5s9.5-4.3,9.5-9.5v-10C20,5.3,15.7,1,10.5,1z"/>
			</g>
			<g id="Path">
				<rect x="10" y="8" class="st0" width="1" height="7"/>
			</g>
		</g>
	</g>
</g>
</svg>
