<?xml version="1.0" encoding="utf-8"?>
<!-- Generator: Adobe Illustrator 24.0.1, SVG Export Plug-In . SVG Version: 6.00 Build 0)  -->
<svg version="1.1" id="Layer_1" xmlns="http://www.w3.org/2000/svg" xmlns:xlink="http://www.w3.org/1999/xlink" x="0px" y="0px"
	 viewBox="0 0 20 20" style="enable-background:new 0 0 20 20;" xml:space="preserve">
<style type="text/css">
	.st0{fill:#45BDE1;}
	.st1{fill:#4B5362;}
</style>
<title>story</title>
<g id="UI-Kit">
	<g id="USARESILIENCE_Home" transform="translate(-556.000000, -1750.000000)">
		<g id="story" transform="translate(556.000000, 1750.000000)">
			<g id="Rectangle">
				<path class="st0" d="M17,9H6V4h11V9z M7,8h9V5H7V8z"/>
			</g>
			<path class="st1" d="M3,0v17.8c0,0.9-0.4,1.1-0.6,1.2C1.7,18.9,1,18.4,1,17.8V11h1.5v-1H0v7.8c0,1.2,1.1,2,2.2,2.1l0,0h0.3L3,20
				v0h14.8c1.2,0,2.2-0.9,2.2-2.2V0H3z M19,17.8c0,0.7-0.5,1.2-1.2,1.2H3.8C3.9,18.7,4,18.3,4,17.8V1h15V17.8z"/>
			<g id="Path_2_">
				<rect x="6" y="11" class="st0" width="11" height="1"/>
			</g>
			<g id="Path_3_">
				<rect x="6" y="14" class="st1" width="11" height="1"/>
			</g>
		</g>
	</g>
</g>
</svg>
