<?xml version="1.0" standalone="no"?>
<!DOCTYPE svg PUBLIC "-//W3C//DTD SVG 20010904//EN"
 "http://www.w3.org/TR/2001/REC-SVG-20010904/DTD/svg10.dtd">
<svg version="1.0" xmlns="http://www.w3.org/2000/svg"
 width="700.000000pt" height="700.000000pt" viewBox="0 0 700.000000 700.000000"
 preserveAspectRatio="xMidYMid meet">
<metadata>
Created by potrace 1.11, written by Peter Selinger 2001-2013
</metadata>
<g transform="translate(0.000000,700.000000) scale(0.100000,-0.100000)"
fill="#000000" stroke="none">
<path d="M512 5758 c0 -40 0 -76 -1 -80 -1 -3 -45 10 -98 29 -150 54 -156 55
-150 35 6 -20 43 -139 83 -266 26 -81 27 -90 13 -115 -8 -14 -57 -107 -108
-206 -52 -99 -103 -195 -114 -213 -16 -28 -20 -53 -21 -146 l-1 -111 -57 -101
-58 -101 21 -124 c11 -68 22 -140 25 -159 2 -19 9 -55 14 -80 5 -25 12 -63 15
-85 8 -55 14 -90 27 -160 6 -33 13 -170 14 -305 1 -135 2 -248 3 -251 1 -4 31
-26 69 -50 37 -24 68 -47 70 -51 2 -5 9 -8 15 -9 7 0 64 -35 127 -77 l115 -77
0 -69 0 -69 120 -29 c66 -15 132 -30 147 -33 15 -3 38 -9 52 -15 15 -5 26 -7
26 -5 0 13 76 -28 119 -63 126 -104 333 -253 358 -257 52 -9 378 -57 408 -61
17 -1 68 8 115 20 47 13 97 26 112 30 14 3 33 9 41 12 11 4 66 -60 192 -223
97 -125 187 -241 200 -257 l24 -28 66 56 c36 31 72 56 78 56 11 0 167 -27 207
-35 8 -2 21 -4 28 -4 12 -1 106 -188 251 -496 l43 -91 110 -44 c61 -25 114
-46 118 -48 3 -1 6 64 6 145 -1 117 2 150 14 164 8 9 113 89 234 179 l219 162
101 -6 c165 -11 207 -14 291 -21 44 -4 116 -8 159 -9 l80 -1 -1 88 c0 73 3 87
16 88 9 0 208 1 443 2 l427 2 48 -73 c26 -40 53 -81 58 -90 6 -9 85 -131 177
-269 120 -182 172 -253 186 -253 10 0 22 -3 26 -7 4 -4 25 -13 46 -19 48 -14
46 -20 44 156 -1 145 4 126 -74 295 -15 33 -56 121 -90 195 -34 74 -69 150
-77 168 -16 34 -15 50 13 197 2 11 11 58 20 105 19 98 28 119 85 180 23 25 74
81 113 124 39 44 82 91 95 105 12 14 51 57 85 94 l61 68 1 154 1 154 -104 137
c-78 102 -101 139 -91 146 27 18 110 58 120 58 6 0 41 -24 78 -54 l67 -54 63
206 c112 369 83 316 239 450 75 64 150 129 166 144 17 15 33 28 38 28 8 0 5
29 -22 210 l-18 125 64 60 c35 33 109 103 163 155 l100 95 -99 174 c-55 95
-103 177 -108 182 -9 9 -110 -28 -154 -56 -10 -6 -34 -73 -60 -168 l-45 -159
-165 -64 c-90 -36 -184 -72 -209 -82 -44 -17 -47 -22 -116 -157 -78 -155 -63
-142 -214 -185 -132 -38 -160 -51 -188 -89 -15 -20 -31 -41 -37 -47 -5 -6 -62
-79 -125 -162 -75 -99 -120 -150 -130 -147 -8 2 -40 6 -70 10 -106 11 -95 -9
-98 174 -2 159 -9 191 -42 221 -3 3 -48 65 -99 137 -61 86 -98 130 -105 125
-6 -5 -54 -42 -106 -84 l-95 -74 1 -220 1 -219 -35 -48 c-19 -26 -35 -47 -37
-45 -1 2 -34 40 -73 84 -39 45 -69 83 -68 85 2 2 7 67 11 144 4 77 9 149 10
160 1 11 3 34 4 52 1 28 12 41 94 104 143 110 159 123 184 144 l25 20 -94 19
c-51 9 -106 22 -123 26 -16 5 -46 11 -65 14 -19 3 -60 12 -91 19 -64 16 -62
16 -149 -12 -51 -16 -91 -21 -190 -21 l-125 0 114 114 c62 62 109 116 104 119
-5 4 -23 9 -39 11 -16 3 -60 13 -99 21 -269 58 -423 85 -505 90 -52 2 -151 7
-220 10 -69 3 -163 8 -210 10 -47 2 -152 7 -235 10 -224 9 -273 13 -355 25
-41 6 -95 13 -120 16 -25 2 -55 6 -66 8 -12 3 -48 8 -80 11 -33 4 -68 9 -79
11 -11 2 -44 7 -74 10 -30 3 -62 7 -70 9 -31 5 -96 15 -136 20 -36 4 -155 20
-230 30 -16 3 -52 7 -80 10 -27 4 -57 8 -65 10 -8 2 -40 6 -71 10 -31 3 -65 7
-75 9 -11 2 -44 7 -74 11 -50 6 -143 29 -400 100 -52 15 -111 30 -130 35 -19
5 -93 25 -165 44 -71 20 -133 36 -137 36 -4 0 -7 -33 -6 -72z"/>
</g>
</svg>
