<?xml version="1.0" encoding="utf-8"?>
<!-- Generator: Adobe Illustrator 24.0.1, SVG Export Plug-In . SVG Version: 6.00 Build 0)  -->
<svg version="1.1" id="Layer_1" xmlns="http://www.w3.org/2000/svg" xmlns:xlink="http://www.w3.org/1999/xlink" x="0px" y="0px"
	 viewBox="0 0 213 19" style="enable-background:new 0 0 213 19;" xml:space="preserve">
<style type="text/css">
	.st0{enable-background:new    ;}
	.st1{fill:#4B5362;}
	.st2{fill:#45BDE1;}
</style>
<title>Group 45</title>
<g id="latest">
	<g id="USARESILIENCE_01" transform="translate(-110.000000, -16.000000)">
		<g id="Group-45" transform="translate(110.000000, 16.000000)">
			<g id="Group-2" transform="translate(44.000000, 1.000000)">
				<g class="st0">
					<path class="st1" d="M1.1,9.4V3.2h1.6v6.1c0,1.3,0.6,2.3,2.3,2.3c1.7,0,2.3-1,2.3-2.3V3.2h1.7v6.2c0,2.4-1.6,3.8-3.9,3.8
						C2.7,13.1,1.1,11.8,1.1,9.4z"/>
					<path class="st1" d="M11.7,9.9h1.7c0.1,1.1,0.9,1.8,2.2,1.8c1.5,0,2.2-0.5,2.2-1.4c0-0.8-0.5-1.1-1.5-1.4l-1.4-0.3
						C13.1,8.2,12,7.5,12,5.8c0-1.7,1.4-2.7,3.6-2.7c2.2,0,3.7,1.2,3.7,3h-1.7c-0.1-0.9-0.7-1.6-2-1.6c-1.2,0-1.9,0.4-1.9,1.3
						c0,0.6,0.4,1,1.4,1.2l1.3,0.3c1.8,0.4,3,1.2,3,2.9c0,1.8-1.3,2.9-3.9,2.9C13.1,13.1,11.8,11.8,11.7,9.9z"/>
					<path class="st1" d="M30.5,12.9V13h-1.8L28,10.7h-4L23.2,13h-1.7v-0.1L25,3.2H27L30.5,12.9z M27.5,9.3L26,4.9h-0.1l-1.5,4.4
						H27.5z"/>
					<path class="st1" d="M46.3,12.9V13h-1.9l-2.4-3.7h-2V13h-1.6V3.2h4.1c2,0,3.2,1.4,3.2,3c0,1.4-0.8,2.5-2,2.9L46.3,12.9z
						 M40.1,7.8h2.4c1.1,0,1.6-0.7,1.6-1.6c0-0.9-0.5-1.6-1.6-1.6h-2.4V7.8z"/>
					<path class="st1" d="M49,3.2h6.6v1.5h-5v2.5h4.5v1.5h-4.5v2.8h5V13H49V3.2z"/>
					<path class="st1" d="M58,9.9h1.7c0.1,1.1,0.9,1.8,2.2,1.8c1.5,0,2.2-0.5,2.2-1.4c0-0.8-0.5-1.1-1.5-1.4l-1.4-0.3
						c-1.7-0.4-2.8-1.1-2.8-2.8c0-1.7,1.4-2.7,3.6-2.7c2.2,0,3.7,1.2,3.7,3h-1.7c-0.1-0.9-0.7-1.6-2-1.6C60.7,4.6,60,5,60,5.8
						c0,0.6,0.4,1,1.4,1.2l1.3,0.3c1.8,0.4,3,1.2,3,2.9c0,1.8-1.3,2.9-3.9,2.9C59.4,13.1,58.1,11.8,58,9.9z"/>
					<path class="st1" d="M68.7,3.2h1.7V13h-1.7V3.2z"/>
					<path class="st1" d="M74,3.2h1.6v8.3h4.6V13H74V3.2z"/>
					<path class="st1" d="M82.9,3.2h1.7V13h-1.7V3.2z"/>
					<path class="st1" d="M88.1,3.2h6.6v1.5h-5v2.5h4.5v1.5h-4.5v2.8h5V13h-6.6V3.2z"/>
					<path class="st1" d="M97.8,3.2h1.9l4.4,7.2h0.1V3.2h1.6V13h-1.9l-4.4-7.2h-0.1V13h-1.6V3.2z"/>
					<path class="st1" d="M108.8,8.1c0-2.9,1.6-5,4.5-5c2.4,0,3.9,1.5,4.1,3.6h-1.7c-0.1-1.2-0.9-2.1-2.4-2.1c-2,0-2.8,1.6-2.8,3.5
						s0.8,3.5,2.8,3.5c1.5,0,2.2-0.8,2.4-2h1.7c-0.2,2-1.7,3.5-4.1,3.5C110.3,13.1,108.8,11,108.8,8.1z"/>
					<path class="st1" d="M120.5,3.2h6.6v1.5h-5v2.5h4.5v1.5h-4.5v2.8h5V13h-6.6V3.2z"/>
					<path class="st1" d="M135.4,3.2h1.9l3.1,5.4h0.1l3.1-5.4h1.8V13h-1.6V5.8h-0.1l-3.2,5.5h-0.1L137,5.8H137V13h-1.6V3.2z"/>
					<path class="st1" d="M157,12.9V13h-1.8l-0.8-2.3h-4l-0.8,2.3h-1.7v-0.1l3.5-9.7h2.1L157,12.9z M154,9.3l-1.5-4.4h-0.1l-1.5,4.4
						H154z"/>
					<path class="st1" d="M159.7,3.2h4c2,0,3.2,1.3,3.2,3.2c0,1.9-1.3,3.2-3.2,3.2h-2.3V13h-1.6V3.2z M163.4,8.1
						c1.2,0,1.8-0.6,1.8-1.7c0-1.1-0.7-1.7-1.8-1.7h-2.1v3.4H163.4z"/>
				</g>
			</g>
			<g id="Path">
				<polygon class="st2" points="2.2,0 2.2,0.7 1.1,0.3 1.6,1.9 0.5,4 0.5,4.9 0,5.8 0.5,8.8 0.5,10.8 2.2,11.9 2.2,12.5 3.9,12.9 
					5.6,14.2 7.6,14.5 8.7,14.2 10.4,16.4 11,15.9 12.1,16.1 13.3,18.6 14.3,19 14.3,17.7 16.3,16.2 19,16.4 19,15.6 22.8,15.6 
					24.7,18.5 25.3,18.7 25.3,17.4 24.2,15 24.5,13.4 26.3,11.4 26.3,10.1 25.4,8.9 26,8.6 26.6,9.1 27.3,6.8 28.8,5.5 28.6,4.1 
					30,2.8 29.1,1.2 28.4,1.5 28,2.9 26.2,3.6 25.6,4.8 24.3,5.2 23,6.9 22.2,6.8 22.2,5.4 21.2,4 20.3,4.7 20.3,6.6 20,7 19.4,6.3 
					19.5,4.6 20.8,3.6 18.9,3.2 18.3,3.4 17.2,3.4 18.2,2.4 15.8,1.9 11.4,1.7 5.5,0.9 				"/>
			</g>
		</g>
	</g>
</g>
</svg>
