<?xml version="1.0" encoding="utf-8"?>
<!-- Generator: Adobe Illustrator 16.0.0, SVG Export Plug-In . SVG Version: 6.00 Build 0)  -->
<!DOCTYPE svg PUBLIC "-//W3C//DTD SVG 1.1//EN" "http://www.w3.org/Graphics/SVG/1.1/DTD/svg11.dtd">
<svg version="1.1" id="Layer_1" xmlns="http://www.w3.org/2000/svg" xmlns:xlink="http://www.w3.org/1999/xlink" x="0px" y="0px"
	 width="168.444px" height="595.281px" viewBox="0 0 168.444 595.281" enable-background="new 0 0 168.444 595.281"
	 xml:space="preserve">
<title>Group 45</title>
<g id="latest">
	<g id="USARESILIENCE_01" transform="translate(-110.000000, -16.000000)">
		<g id="Group-45" transform="translate(110.000000, 16.000000)">
			<g id="Group-2" transform="translate(44.000000, 1.000000)">
				<g enable-background="new    ">
					<path fill="#4B5362" d="M134.259,300.197v-24.505h6.324v24.11c0,5.138,2.371,9.091,9.091,9.091s9.091-3.953,9.091-9.091v-24.11
						h6.72v24.505c0,9.486-6.324,15.021-15.415,15.021C140.583,314.822,134.259,309.683,134.259,300.197z"/>
					<path fill="#4B5362" d="M176.156,302.174h6.719c0.396,4.348,3.558,7.115,8.695,7.115c5.93,0,8.696-1.977,8.696-5.534
						c0-3.162-1.977-4.348-5.929-5.533l-5.534-1.186c-7.114-1.581-11.462-4.349-11.462-11.067c0-6.72,5.533-10.672,14.229-10.672
						c8.696,0,14.625,4.743,14.625,11.857h-6.72c-0.396-3.558-2.767-6.324-7.905-6.324c-4.742,0-7.51,1.581-7.51,5.139
						c0,2.371,1.581,3.952,5.534,4.743l5.138,1.186c7.115,1.581,11.858,4.743,11.858,11.462c0,7.115-5.139,11.463-15.415,11.463
						C181.69,314.822,176.551,309.683,176.156,302.174z"/>
					<path fill="#4B5362" d="M250.464,314.032v0.395h-7.115l-2.767-9.091h-15.81l-3.162,9.091h-6.72v-0.395l13.834-38.34h7.905
						L250.464,314.032z M238.606,299.802l-5.929-17.392h-0.395l-5.93,17.392H238.606z"/>
					<path fill="#4B5362" d="M312.913,314.032v0.395h-7.51l-9.485-14.624h-7.905v14.624h-6.324v-38.734h16.205
						c7.905,0,12.648,5.533,12.648,11.857c0,5.533-3.162,9.881-7.905,11.462L312.913,314.032z M288.408,293.874h9.485
						c4.348,0,6.324-2.768,6.324-6.324c0-3.558-1.977-6.324-6.324-6.324h-9.485V293.874z"/>
					<path fill="#4B5362" d="M323.585,275.692h26.087v5.929h-19.763v9.881h17.786v5.929h-17.786v11.067h19.763v5.929h-26.087
						V275.692z"/>
					<path fill="#4B5362" d="M359.158,302.174h6.719c0.396,4.348,3.558,7.115,8.696,7.115c5.929,0,8.695-1.977,8.695-5.534
						c0-3.162-1.977-4.348-5.929-5.533l-5.534-1.186c-6.719-1.581-11.066-4.349-11.066-11.067c0-6.72,5.533-10.672,14.229-10.672
						c8.696,0,14.625,4.743,14.625,11.857h-6.72c-0.396-3.558-2.767-6.324-7.905-6.324c-5.138,0.396-7.905,1.977-7.905,5.139
						c0,2.371,1.581,3.952,5.534,4.743l5.138,1.186c7.115,1.581,11.858,4.743,11.858,11.462c0,7.115-5.139,11.463-15.415,11.463
						C364.692,314.822,359.553,309.683,359.158,302.174z"/>
					<path fill="#4B5362" d="M401.45,275.692h6.719v38.734h-6.719V275.692z"/>
					<path fill="#4B5362" d="M422.399,275.692h6.324v32.806h18.182v5.929h-24.506V275.692z"/>
					<path fill="#4B5362" d="M457.576,275.692h6.719v38.734h-6.719V275.692z"/>
					<path fill="#4B5362" d="M478.129,275.692h26.087v5.929h-19.763v9.881h17.786v5.929h-17.786v11.067h19.763v5.929h-26.087
						V275.692z"/>
					<path fill="#4B5362" d="M516.469,275.692h7.51l17.392,28.458h0.395v-28.458h6.324v38.734h-7.51l-17.391-28.458h-0.396v28.458
						h-6.324V275.692z"/>
					<path fill="#4B5362" d="M559.947,295.059c0-11.463,6.324-19.763,17.787-19.763c9.485,0,15.415,5.929,16.205,14.229h-6.72
						c-0.395-4.742-3.557-8.3-9.485-8.3c-7.905,0-11.067,6.324-11.067,13.834s3.162,13.834,11.067,13.834
						c5.929,0,8.695-3.162,9.485-7.905h6.72c-0.79,7.905-6.72,13.834-16.205,13.834
						C565.875,314.822,559.947,306.521,559.947,295.059z"/>
					<path fill="#4B5362" d="M606.192,275.692h26.087v5.929h-19.763v9.881h17.786v5.929h-17.786v11.067h19.763v5.929h-26.087
						V275.692z"/>
					<path fill="#4B5362" d="M665.084,275.692h7.51l12.253,21.344h0.396l12.253-21.344h7.114v38.734h-6.324v-28.458h-0.396
						l-12.647,21.739h-0.396l-13.438-21.739l0,0v28.458h-6.324V275.692z"/>
					<path fill="#4B5362" d="M750.459,314.032v0.395h-7.115l-3.162-9.091h-15.81l-3.162,9.091h-6.72v-0.395l13.834-38.34h8.301
						L750.459,314.032z M738.602,299.802l-5.93-17.392h-0.395l-5.929,17.392H738.602z"/>
					<path fill="#4B5362" d="M761.131,275.692h15.81c7.905,0,12.648,5.138,12.648,12.647s-5.139,12.648-12.648,12.648h-9.091v13.438
						h-6.324v-38.734H761.131z M775.755,295.059c4.743,0,7.114-2.372,7.114-6.72s-2.767-6.719-7.114-6.719h-8.3v13.438H775.755z"/>
				</g>
			</g>
			<g id="Path">
				<polygon fill="#45BDE1" points="8.696,260.092 8.696,262.858 4.348,261.277 6.324,267.601 1.976,275.901 1.976,279.459 
					0,283.015 1.976,294.874 1.976,302.778 8.696,307.127 8.696,309.498 15.415,311.079 22.134,316.218 30.039,317.403 
					34.387,316.218 41.107,324.913 43.478,322.936 47.825,323.727 52.569,333.608 56.521,335.189 56.521,330.052 64.426,324.123 
					75.098,324.913 75.098,321.751 90.117,321.751 97.627,333.214 99.999,334.004 99.999,328.865 95.652,319.38 96.837,313.055 
					103.951,305.15 103.951,300.011 100.395,295.268 102.766,294.083 105.137,296.059 107.905,286.969 113.833,281.83 
					113.042,276.297 118.576,271.158 115.019,264.834 112.252,266.02 110.671,271.553 103.556,274.32 101.185,279.063 
					96.046,280.644 90.908,287.364 87.746,286.969 87.746,281.434 83.794,275.901 80.237,278.668 80.237,286.177 79.051,287.759 
					76.679,284.992 77.074,278.273 82.213,274.32 74.702,272.739 72.331,273.53 67.984,273.53 71.936,269.577 62.45,267.601 
					45.059,266.81 21.739,263.648 				"/>
			</g>
		</g>
	</g>
</g>
</svg>
