<svg width="315" height="19" viewBox="0 0 315 19" fill="none" xmlns="http://www.w3.org/2000/svg">
<path d="M49.9834 14.123C48.8122 14.123 47.8688 13.7926 47.1533 13.1318C46.4378 12.471 46.0801 11.5482 46.0801 10.3633V4.19727H47.7139V10.3291C47.7139 11.0492 47.9007 11.6097 48.2744 12.0107C48.639 12.43 49.2087 12.6396 49.9834 12.6396C50.7627 12.6396 51.3415 12.43 51.7197 12.0107C52.0843 11.6051 52.2666 11.0446 52.2666 10.3291V4.19727H53.9209V10.3633C53.9209 11.5527 53.5654 12.4756 52.8545 13.1318C52.139 13.7926 51.182 14.123 49.9834 14.123Z" fill="white"/>
<path d="M60.5733 14.123C59.352 14.123 58.4132 13.8291 57.7569 13.2412C57.0824 12.6624 56.7247 11.874 56.6837 10.876H58.3448C58.3858 11.4456 58.6023 11.8854 58.9942 12.1953C59.3679 12.5007 59.8943 12.6533 60.5733 12.6533C62.0134 12.6533 62.7335 12.1885 62.7335 11.2588C62.7335 10.8896 62.6104 10.5957 62.3643 10.377C62.1137 10.1673 61.7309 10.0078 61.2159 9.89844L59.7872 9.59082C58.894 9.39486 58.2035 9.07812 57.7159 8.64062C57.2419 8.21224 57.005 7.60384 57.005 6.81543C57.005 5.99056 57.3263 5.3252 57.9688 4.81934C58.616 4.32259 59.4887 4.07422 60.587 4.07422C61.6671 4.07422 62.5489 4.35449 63.2325 4.91504C63.9024 5.47559 64.2442 6.20703 64.2579 7.10938H62.5899C62.5626 6.63542 62.3803 6.25716 62.043 5.97461C61.7104 5.69661 61.2159 5.55762 60.5596 5.55762C59.3201 5.55762 58.7003 5.97689 58.7003 6.81543C58.7003 7.41699 59.1765 7.82487 60.129 8.03906L61.4552 8.31934C63.433 8.72493 64.422 9.69336 64.422 11.2246C64.422 12.1224 64.0961 12.8288 63.4444 13.3438C62.7882 13.8633 61.8311 14.123 60.5733 14.123Z" fill="white"/>
<path d="M77.9592 10.1104L80.468 13.8633V14H78.6086L76.2434 10.3018H74.2815V14H72.6409V4.19727H76.7834C77.7633 4.19727 78.5426 4.48665 79.1213 5.06543C79.7001 5.64421 79.9895 6.36426 79.9895 7.22559C79.9895 7.92741 79.8095 8.52897 79.4495 9.03027C79.0985 9.53613 78.6018 9.89616 77.9592 10.1104ZM74.2815 5.68066V8.81836H76.6877C77.2301 8.81836 77.6311 8.6748 77.8909 8.3877C78.1643 8.10059 78.301 7.71777 78.301 7.23926C78.301 6.76986 78.1643 6.3916 77.8909 6.10449C77.6083 5.82194 77.2073 5.68066 76.6877 5.68066H74.2815Z" fill="white"/>
<path d="M83.1898 14V4.19727H89.8001V5.68066H84.8304V8.20312H89.3626V9.68652H84.8304V12.5303H89.8001V14H83.1898Z" fill="white"/>
<path d="M96.0971 14.123C94.8757 14.123 93.9369 13.8291 93.2807 13.2412C92.6062 12.6624 92.2484 11.874 92.2074 10.876H93.8686C93.9096 11.4456 94.126 11.8854 94.518 12.1953C94.8917 12.5007 95.418 12.6533 96.0971 12.6533C97.5372 12.6533 98.2572 12.1885 98.2572 11.2588C98.2572 10.8896 98.1342 10.5957 97.8881 10.377C97.6374 10.1673 97.2546 10.0078 96.7396 9.89844L95.3109 9.59082C94.4177 9.39486 93.7273 9.07812 93.2396 8.64062C92.7657 8.21224 92.5287 7.60384 92.5287 6.81543C92.5287 5.99056 92.85 5.3252 93.4926 4.81934C94.1397 4.32259 95.0124 4.07422 96.1107 4.07422C97.1908 4.07422 98.0727 4.35449 98.7562 4.91504C99.4262 5.47559 99.768 6.20703 99.7816 7.10938H98.1137C98.0863 6.63542 97.904 6.25716 97.5668 5.97461C97.2341 5.69661 96.7396 5.55762 96.0834 5.55762C94.8438 5.55762 94.224 5.97689 94.224 6.81543C94.224 7.41699 94.7003 7.82487 95.6527 8.03906L96.9789 8.31934C98.9568 8.72493 99.9457 9.69336 99.9457 11.2246C99.9457 12.1224 99.6199 12.8288 98.9682 13.3438C98.3119 13.8633 97.3549 14.123 96.0971 14.123Z" fill="white"/>
<path d="M102.92 14V4.19727H104.575V14H102.92Z" fill="white"/>
<path d="M108.178 14V4.19727H109.819V12.5166H114.44V14H108.178Z" fill="white"/>
<path d="M117.073 14V4.19727H118.727V14H117.073Z" fill="white"/>
<path d="M122.331 14V4.19727H128.941V5.68066H123.971V8.20312H128.504V9.68652H123.971V12.5303H128.941V14H122.331Z" fill="white"/>
<path d="M132.046 14V4.19727H133.926L138.335 11.3955H138.389V4.19727H140.01V14H138.123L133.714 6.84277H133.659V14H132.046Z" fill="white"/>
<path d="M147.571 14.123C146.131 14.123 145.019 13.6628 144.235 12.7422C143.451 11.8353 143.059 10.6253 143.059 9.1123C143.059 7.59928 143.451 6.38249 144.235 5.46191C145.024 4.53678 146.136 4.07422 147.571 4.07422C148.756 4.07422 149.713 4.40462 150.442 5.06543C151.167 5.72168 151.577 6.58529 151.673 7.65625H149.991C149.923 7.02734 149.686 6.52376 149.28 6.14551C148.879 5.77181 148.309 5.58496 147.571 5.58496C146.614 5.58496 145.903 5.90625 145.438 6.54883C144.974 7.20508 144.741 8.05957 144.741 9.1123C144.741 10.1696 144.974 11.0195 145.438 11.6621C145.903 12.3047 146.614 12.626 147.571 12.626C148.268 12.626 148.822 12.4482 149.232 12.0928C149.638 11.7419 149.895 11.2565 150.005 10.6367H151.673C151.55 11.6667 151.128 12.5075 150.408 13.1592C149.697 13.8018 148.752 14.123 147.571 14.123Z" fill="white"/>
<path d="M154.716 14V4.19727H161.326V5.68066H156.356V8.20312H160.889V9.68652H156.356V12.5303H161.326V14H154.716Z" fill="white"/>
<path d="M173.64 14.123C172.172 14.123 171.051 13.6536 170.276 12.7148C169.502 11.776 169.114 10.5706 169.114 9.09863C169.114 7.62207 169.502 6.41439 170.276 5.47559C171.047 4.54134 172.168 4.07422 173.64 4.07422C175.116 4.07422 176.24 4.54134 177.01 5.47559C177.776 6.40527 178.158 7.61296 178.158 9.09863C178.158 10.5706 177.771 11.776 176.996 12.7148C176.221 13.6536 175.103 14.123 173.64 14.123ZM173.64 12.6123C174.601 12.6123 175.315 12.291 175.779 11.6484C176.249 11.0013 176.484 10.1514 176.484 9.09863C176.484 8.0459 176.249 7.19596 175.779 6.54883C175.315 5.90625 174.601 5.58496 173.64 5.58496C172.674 5.58496 171.958 5.90625 171.493 6.54883C171.028 7.19141 170.796 8.04134 170.796 9.09863C170.796 10.1559 171.028 11.0059 171.493 11.6484C171.958 12.291 172.674 12.6123 173.64 12.6123Z" fill="white"/>
<path d="M181.208 14V4.19727H185.187C186.176 4.19727 186.964 4.49121 187.552 5.0791C188.131 5.67155 188.42 6.42806 188.42 7.34863C188.42 8.29655 188.126 9.07129 187.538 9.67285C186.955 10.2699 186.171 10.5684 185.187 10.5684H182.849V14H181.208ZM182.849 9.08496H184.906C185.49 9.08496 185.943 8.93685 186.267 8.64062C186.581 8.35352 186.738 7.92285 186.738 7.34863C186.738 6.81999 186.574 6.40527 186.246 6.10449C185.927 5.81283 185.481 5.66699 184.906 5.66699H182.849V9.08496Z" fill="white"/>
<path d="M191.47 14V4.19727H195.449C196.437 4.19727 197.226 4.49121 197.814 5.0791C198.393 5.67155 198.682 6.42806 198.682 7.34863C198.682 8.29655 198.388 9.07129 197.8 9.67285C197.217 10.2699 196.433 10.5684 195.449 10.5684H193.111V14H191.47ZM193.111 9.08496H195.168C195.752 9.08496 196.205 8.93685 196.529 8.64062C196.843 8.35352 197 7.92285 197 7.34863C197 6.81999 196.836 6.40527 196.508 6.10449C196.189 5.81283 195.742 5.66699 195.168 5.66699H193.111V9.08496Z" fill="white"/>
<path d="M205.697 14.123C204.229 14.123 203.108 13.6536 202.333 12.7148C201.559 11.776 201.171 10.5706 201.171 9.09863C201.171 7.62207 201.559 6.41439 202.333 5.47559C203.104 4.54134 204.225 4.07422 205.697 4.07422C207.173 4.07422 208.297 4.54134 209.067 5.47559C209.832 6.40527 210.215 7.61296 210.215 9.09863C210.215 10.5706 209.828 11.776 209.053 12.7148C208.278 13.6536 207.16 14.123 205.697 14.123ZM205.697 12.6123C206.658 12.6123 207.371 12.291 207.836 11.6484C208.306 11.0013 208.54 10.1514 208.54 9.09863C208.54 8.0459 208.306 7.19596 207.836 6.54883C207.371 5.90625 206.658 5.58496 205.697 5.58496C204.73 5.58496 204.015 5.90625 203.55 6.54883C203.085 7.19141 202.853 8.04134 202.853 9.09863C202.853 10.1559 203.085 11.0059 203.55 11.6484C204.015 12.291 204.73 12.6123 205.697 12.6123Z" fill="white"/>
<path d="M218.583 10.1104L221.092 13.8633V14H219.233L216.868 10.3018H214.906V14H213.265V4.19727H217.408C218.387 4.19727 219.167 4.48665 219.746 5.06543C220.324 5.64421 220.614 6.36426 220.614 7.22559C220.614 7.92741 220.434 8.52897 220.074 9.03027C219.723 9.53613 219.226 9.89616 218.583 10.1104ZM214.906 5.68066V8.81836H217.312C217.854 8.81836 218.255 8.6748 218.515 8.3877C218.789 8.10059 218.925 7.71777 218.925 7.23926C218.925 6.76986 218.789 6.3916 218.515 6.10449C218.233 5.82194 217.831 5.68066 217.312 5.68066H214.906Z" fill="white"/>
<path d="M225.913 14V5.68066H222.959V4.19727H230.52V5.68066H227.567V14H225.913Z" fill="white"/>
<path d="M233.269 14V4.19727H234.923V14H233.269Z" fill="white"/>
<path d="M238.527 14V4.19727H240.407L244.816 11.3955H244.871V4.19727H246.491V14H244.604L240.195 6.84277H240.14V14H238.527Z" fill="white"/>
<path d="M250.101 14V4.19727H251.756V14H250.101Z" fill="white"/>
<path d="M257.458 14V5.68066H254.505V4.19727H262.065V5.68066H259.112V14H257.458Z" fill="white"/>
<path d="M267.474 14V9.99414L263.892 4.34082V4.19727H265.778L268.287 8.37402H268.342L270.809 4.19727H272.683V4.34082L269.128 9.98047V14H267.474Z" fill="white"/>
<path d="M280.607 14V4.19727H282.474L285.536 9.5498H285.591L288.66 4.19727H290.492V14H288.913V6.80176H288.852L285.618 12.3457H285.482L282.248 6.76074H282.193V14H280.607Z" fill="white"/>
<path d="M298.731 4.19727L302.244 13.8633V14H300.453L299.681 11.7305H295.682L294.909 14H293.173V13.8633L296.673 4.19727H298.731ZM296.167 10.2881H299.195L297.712 5.91992H297.651L296.167 10.2881Z" fill="white"/>
<path d="M304.946 14V4.19727H308.924C309.913 4.19727 310.701 4.49121 311.289 5.0791C311.868 5.67155 312.157 6.42806 312.157 7.34863C312.157 8.29655 311.864 9.07129 311.276 9.67285C310.692 10.2699 309.908 10.5684 308.924 10.5684H306.586V14H304.946ZM306.586 9.08496H308.644C309.227 9.08496 309.681 8.93685 310.004 8.64062C310.319 8.35352 310.476 7.92285 310.476 7.34863C310.476 6.81999 310.312 6.40527 309.984 6.10449C309.665 5.81283 309.218 5.66699 308.644 5.66699H306.586V9.08496Z" fill="white"/>
<path d="M2.2 0V0.7L1.1 0.3L1.6 1.9L0.5 4V4.9L0 5.8L0.5 8.8V10.8L2.2 11.9V12.5L3.9 12.9L5.6 14.2L7.6 14.5L8.7 14.2L10.4 16.4L11 15.9L12.1 16.1L13.3 18.6L14.3 19V17.7L16.3 16.2L19 16.4V15.6H22.8L24.7 18.5L25.3 18.7V17.4L24.2 15L24.5 13.4L26.3 11.4V10.1L25.4 8.9L26 8.6L26.6 9.1L27.3 6.8L28.8 5.5L28.6 4.1L30 2.8L29.1 1.2L28.4 1.5L28 2.9L26.2 3.6L25.6 4.8L24.3 5.2L23 6.9L22.2 6.8V5.4L21.2 4L20.3 4.7V6.6L20 7L19.4 6.3L19.5 4.6L20.8 3.6L18.9 3.2L18.3 3.4H17.2L18.2 2.4L15.8 1.9L11.4 1.7L5.5 0.9L2.2 0Z" fill="#45BDE1"/>
</svg>
